<svg id="Capa_1" enable-background="new 0 0 512 512" height="512" viewBox="0 0 512 512" width="512" xmlns="http://www.w3.org/2000/svg"><path d="m428.539 298.847c-31.352 0-56.769 25.416-56.769 56.769 0 18.068 8.451 34.152 21.604 44.549v-5.014c0-16.844 13.781-30.625 30.625-30.625h9.079c16.844 0 30.625 13.781 30.625 30.625v5.014c13.153-10.397 21.604-26.481 21.604-44.549.001-31.353-25.415-56.769-56.768-56.769z" fill="#60b8fe"/><path d="m393.375 395.15c0-6.982 2.373-13.433 6.346-18.6-2.574-6.479-3.998-13.539-3.998-20.935 0-27.243 19.193-49.993 44.793-55.492-3.862-.83-7.866-1.277-11.976-1.277-31.352 0-56.769 25.416-56.769 56.769 0 18.068 8.451 34.152 21.604 44.549z" fill="#23a8fe"/><circle cx="428.539" cy="343.56" fill="#fed2a4" r="18.814"/><path d="m428.539 343.56c0-6.96 3.789-13.022 9.407-16.276-2.77-1.604-5.976-2.537-9.407-2.537-10.39 0-18.814 8.423-18.814 18.814s8.423 18.814 18.814 18.814c3.431 0 6.637-.933 9.407-2.538-5.618-3.255-9.407-9.318-9.407-16.277z" fill="#ffbd86"/><path d="m433.183 362.374h-9.287c-17.23 0-31.327 14.097-31.327 31.327v5.83c9.793 8.031 22.318 12.854 35.971 12.854s26.178-4.823 35.971-12.854v-5.83c-.001-17.23-14.098-31.327-31.328-31.327z" fill="#ff656f"/><path d="m411.382 393.701c0-15.612 11.573-28.651 26.564-30.963-1.554-.24-3.145-.364-4.763-.364h-9.287c-17.23 0-31.327 14.097-31.327 31.327v5.83c5.503 4.513 11.87 8.013 18.814 10.213v-16.043z" fill="#ff4756"/><path d="m269.509 188.984c-4.267 0-7.726-3.459-7.726-7.726v-28.362c0-4.267 3.459-7.726 7.726-7.726s7.726 3.459 7.726 7.726v28.362c.001 4.266-3.459 7.726-7.726 7.726z" fill="#b1dbfc"/><path d="m233.956 220.734h-61.558c-2.179 0-3.946 1.767-3.946 3.946v98.081h69.45v-98.081c0-2.179-1.766-3.946-3.946-3.946z" fill="#4f67d2"/><path d="m201.262 220.734h-28.864c-2.179 0-3.946 1.767-3.946 3.946v98.081h28.864v-98.081c0-2.179 1.767-3.946 3.946-3.946z" fill="#324ccc"/><path d="m344.413 261.753-14.96-16.506c-.898-.991-2.174-1.557-3.511-1.557h-20.086c-2.617 0-4.739 2.122-4.739 4.739v74.331h44.524v-57.825c-.001-1.176-.438-2.311-1.228-3.182z" fill="#fee55a"/><path d="m330.469 246.369-1.017-1.122c-.898-.991-2.174-1.557-3.511-1.557h-20.086c-2.618 0-4.739 2.122-4.739 4.739v74.331h28.864v-74.33c0-.742.185-1.436.489-2.061z" fill="#ffd301"/><g fill="#6c7ed6"><path d="m209.449 254.166h-15.696c-4.305 0-7.795-3.49-7.795-7.795s3.49-7.795 7.795-7.795h15.696c4.305 0 7.795 3.49 7.795 7.795s-3.49 7.795-7.795 7.795z"/><path d="m209.449 279.935h-15.696c-4.305 0-7.795-3.49-7.795-7.795s3.49-7.795 7.795-7.795h15.696c4.305 0 7.795 3.49 7.795 7.795s-3.49 7.795-7.795 7.795z"/><path d="m209.449 305.703h-15.696c-4.305 0-7.795-3.49-7.795-7.795s3.49-7.795 7.795-7.795h15.696c4.305 0 7.795 3.49 7.795 7.795s-3.49 7.795-7.795 7.795z"/></g><path d="m298.052 181.257h-57.085c-2.84 0-5.143 2.303-5.143 5.143v136.36h67.371v-136.36c0-2.84-2.303-5.143-5.143-5.143z" fill="#dfebfa"/><path d="m269.83 181.257h-28.864c-2.84 0-5.143 2.303-5.143 5.143v136.36h28.864v-136.36c0-2.84 2.303-5.143 5.143-5.143z" fill="#b1dbfc"/><path d="m269.509 306.446c-4.305 0-7.795-3.49-7.795-7.795v-93.894c0-4.305 3.49-7.795 7.795-7.795s7.795 3.49 7.795 7.795v93.894c0 4.305-3.49 7.795-7.795 7.795z" fill="#695d67"/><path d="m351.039 330.487h-187.986c-4.267 0-7.726-3.459-7.726-7.726s3.459-7.726 7.726-7.726h187.986c4.267 0 7.726 3.459 7.726 7.726s-3.458 7.726-7.726 7.726z" fill="#b1dbfc"/><path d="m83.461 298.847c-31.352 0-56.769 25.416-56.769 56.769 0 18.068 8.451 34.152 21.604 44.549v-5.014c0-16.844 13.781-30.625 30.625-30.625h9.079c16.844 0 30.625 13.781 30.625 30.625v5.014c13.153-10.397 21.604-26.481 21.604-44.549 0-31.353-25.416-56.769-56.768-56.769z" fill="#60b8fe"/><path d="m48.296 395.15c0-6.982 2.373-13.433 6.346-18.6-2.574-6.479-3.998-13.539-3.998-20.935 0-27.243 19.193-49.993 44.793-55.492-3.862-.83-7.866-1.277-11.976-1.277-31.352 0-56.769 25.416-56.769 56.769 0 18.068 8.451 34.152 21.604 44.549z" fill="#23a8fe"/><circle cx="83.461" cy="343.56" fill="#fed2a4" r="18.814"/><path d="m83.461 343.56c0-6.96 3.789-13.022 9.407-16.276-2.77-1.604-5.976-2.537-9.407-2.537-10.39 0-18.814 8.423-18.814 18.814s8.423 18.814 18.814 18.814c3.431 0 6.637-.933 9.407-2.538-5.618-3.255-9.407-9.318-9.407-16.277z" fill="#ffbd86"/><path d="m88.104 362.374h-9.287c-17.23 0-31.327 14.097-31.327 31.327v5.83c9.793 8.031 22.318 12.854 35.971 12.854s26.178-4.823 35.971-12.854v-5.83c-.001-17.23-14.098-31.327-31.328-31.327z" fill="#ff656f"/><path d="m66.303 393.701c0-15.612 11.573-28.651 26.564-30.963-1.554-.24-3.145-.364-4.763-.364h-9.287c-17.23 0-31.327 14.097-31.327 31.327v5.83c5.503 4.513 11.87 8.013 18.814 10.213v-16.043z" fill="#ff4756"/><path d="m428.539 99.616c-31.352 0-56.769 25.416-56.769 56.769 0 18.068 8.451 34.152 21.604 44.549v-5.014c0-16.844 13.781-30.625 30.625-30.625h9.079c16.844 0 30.625 13.781 30.625 30.625v5.014c13.153-10.397 21.604-26.481 21.604-44.549.001-31.353-25.415-56.769-56.768-56.769z" fill="#60b8fe"/><path d="m393.375 195.919c0-6.982 2.373-13.433 6.346-18.6-2.574-6.479-3.998-13.539-3.998-20.935 0-27.243 19.193-49.993 44.793-55.492-3.862-.83-7.866-1.277-11.976-1.277-31.352 0-56.769 25.416-56.769 56.769 0 18.068 8.451 34.152 21.604 44.549z" fill="#23a8fe"/><circle cx="428.539" cy="144.328" fill="#fed2a4" r="18.814"/><path d="m428.539 144.328c0-6.96 3.789-13.022 9.407-16.276-2.77-1.604-5.976-2.537-9.407-2.537-10.39 0-18.814 8.423-18.814 18.814 0 10.39 8.423 18.814 18.814 18.814 3.431 0 6.637-.933 9.407-2.538-5.618-3.255-9.407-9.317-9.407-16.277z" fill="#ffbd86"/><path d="m433.183 163.142h-9.287c-17.23 0-31.327 14.097-31.327 31.327v5.83c9.793 8.031 22.318 12.854 35.971 12.854s26.178-4.823 35.971-12.854v-5.83c-.001-17.23-14.098-31.327-31.328-31.327z" fill="#ff656f"/><path d="m411.382 194.469c0-15.611 11.573-28.651 26.564-30.963-1.554-.24-3.145-.364-4.763-.364h-9.287c-17.23 0-31.327 14.097-31.327 31.327v5.83c5.503 4.513 11.87 8.013 18.814 10.213v-16.043z" fill="#ff4756"/><path d="m83.461 99.616c-31.352 0-56.769 25.416-56.769 56.769 0 18.068 8.451 34.152 21.604 44.549v-5.014c0-16.844 13.781-30.625 30.625-30.625h9.079c16.844 0 30.625 13.781 30.625 30.625v5.014c13.153-10.397 21.604-26.481 21.604-44.549 0-31.353-25.416-56.769-56.768-56.769z" fill="#60b8fe"/><path d="m48.296 195.919c0-6.982 2.373-13.433 6.346-18.6-2.574-6.479-3.998-13.539-3.998-20.935 0-27.243 19.193-49.993 44.793-55.492-3.862-.83-7.866-1.277-11.976-1.277-31.352 0-56.769 25.416-56.769 56.769 0 18.068 8.451 34.152 21.604 44.549z" fill="#23a8fe"/><circle cx="83.461" cy="144.328" fill="#fed2a4" r="18.814"/><path d="m83.461 144.328c0-6.96 3.789-13.022 9.407-16.276-2.77-1.604-5.976-2.537-9.407-2.537-10.39 0-18.814 8.423-18.814 18.814 0 10.39 8.423 18.814 18.814 18.814 3.431 0 6.637-.933 9.407-2.538-5.618-3.255-9.407-9.317-9.407-16.277z" fill="#ffbd86"/><path d="m88.104 163.142h-9.287c-17.23 0-31.327 14.097-31.327 31.327v5.83c9.793 8.031 22.318 12.854 35.971 12.854s26.178-4.823 35.971-12.854v-5.83c-.001-17.23-14.098-31.327-31.328-31.327z" fill="#ff656f"/><path d="m66.303 194.469c0-15.611 11.573-28.651 26.564-30.963-1.554-.24-3.145-.364-4.763-.364h-9.287c-17.23 0-31.327 14.097-31.327 31.327v5.83c5.503 4.513 11.87 8.013 18.814 10.213v-16.043z" fill="#ff4756"/><path d="m256 0c-31.352 0-56.769 25.416-56.769 56.769 0 18.068 8.451 34.152 21.604 44.549v-5.014c0-16.844 13.781-30.625 30.625-30.625h9.079c16.844 0 30.625 13.781 30.625 30.625v5.014c13.153-10.397 21.604-26.481 21.604-44.549.001-31.353-25.415-56.769-56.768-56.769z" fill="#60b8fe"/><path d="m220.836 96.303c0-6.982 2.373-13.433 6.346-18.6-2.574-6.479-3.998-13.539-3.998-20.935 0-27.243 19.193-49.993 44.793-55.492-3.863-.829-7.867-1.276-11.977-1.276-31.352 0-56.769 25.416-56.769 56.769 0 18.068 8.451 34.152 21.604 44.549v-5.015z" fill="#23a8fe"/><circle cx="256" cy="44.713" fill="#fed2a4" r="18.814"/><path d="m256 44.713c0-6.96 3.789-13.022 9.407-16.276-2.77-1.604-5.976-2.537-9.407-2.537-10.39 0-18.814 8.423-18.814 18.814 0 10.39 8.423 18.814 18.814 18.814 3.431 0 6.637-.933 9.407-2.537-5.618-3.256-9.407-9.319-9.407-16.278z" fill="#ffbd86"/><path d="m260.644 63.526h-9.287c-17.23 0-31.327 14.097-31.327 31.327v5.83c9.793 8.031 22.318 12.854 35.971 12.854s26.178-4.823 35.971-12.854v-5.83c-.001-17.229-14.098-31.327-31.328-31.327z" fill="#ff656f"/><path d="m238.843 94.854c0-15.611 11.573-28.651 26.564-30.963-1.554-.24-3.145-.364-4.763-.364h-9.287c-17.23 0-31.327 14.097-31.327 31.327v5.83c5.503 4.513 11.87 8.013 18.814 10.213v-16.043z" fill="#ff4756"/><path d="m256 398.463c-31.352 0-56.769 25.416-56.769 56.769 0 18.068 8.451 34.152 21.604 44.549v-5.014c0-16.844 13.781-30.625 30.625-30.625h9.079c16.844 0 30.625 13.781 30.625 30.625v5.014c13.153-10.397 21.604-26.481 21.604-44.549.001-31.353-25.415-56.769-56.768-56.769z" fill="#60b8fe"/><path d="m220.836 494.766c0-6.982 2.373-13.433 6.346-18.6-2.574-6.479-3.998-13.539-3.998-20.935 0-27.243 19.193-49.993 44.793-55.492-3.862-.83-7.866-1.277-11.976-1.277-31.352 0-56.769 25.416-56.769 56.769 0 18.068 8.451 34.152 21.604 44.549z" fill="#23a8fe"/><circle cx="256" cy="443.176" fill="#fed2a4" r="18.814"/><path d="m256 443.176c0-6.96 3.789-13.022 9.407-16.276-2.77-1.604-5.976-2.538-9.407-2.538-10.39 0-18.814 8.423-18.814 18.814 0 10.39 8.423 18.814 18.814 18.814 3.431 0 6.637-.933 9.407-2.538-5.618-3.255-9.407-9.317-9.407-16.276z" fill="#ffbd86"/><path d="m260.644 461.989h-9.287c-17.23 0-31.327 14.097-31.327 31.327v5.83c9.792 8.031 22.317 12.854 35.97 12.854s26.178-4.823 35.971-12.854v-5.83c0-17.229-14.097-31.327-31.327-31.327z" fill="#ff656f"/><path d="m238.843 493.317c0-15.611 11.573-28.651 26.564-30.963-1.554-.24-3.145-.364-4.763-.364h-9.287c-17.23 0-31.327 14.097-31.327 31.327v5.83c5.503 4.513 11.87 8.013 18.814 10.213v-16.043z" fill="#ff4756"/></svg>